<?xml version="1.0" encoding="UTF-8"?>
<svg xmlns="http://www.w3.org/2000/svg" version="1.1" width="100" height="100" viewBox="0 0 100 100"><rect x="0" y="0" width="100" height="100" fill="#ffffff"/><g transform="scale(2.041)"><g transform="translate(0,0)"><path fill-rule="evenodd" d="M8 0L8 1L9 1L9 3L10 3L10 2L11 2L11 3L12 3L12 4L14 4L14 5L12 5L12 7L13 7L13 8L10 8L10 7L11 7L11 6L10 6L10 7L9 7L9 6L8 6L8 8L9 8L9 9L7 9L7 8L6 8L6 9L5 9L5 8L3 8L3 9L2 9L2 8L0 8L0 17L1 17L1 20L0 20L0 21L1 21L1 22L0 22L0 25L1 25L1 22L2 22L2 25L3 25L3 26L0 26L0 29L3 29L3 30L4 30L4 29L5 29L5 32L4 32L4 33L2 33L2 32L3 32L3 31L2 31L2 32L0 32L0 33L1 33L1 34L2 34L2 35L0 35L0 36L1 36L1 37L2 37L2 38L1 38L1 40L0 40L0 41L3 41L3 40L4 40L4 39L2 39L2 38L3 38L3 37L4 37L4 36L3 36L3 35L5 35L5 33L8 33L8 34L6 34L6 35L8 35L8 37L7 37L7 36L6 36L6 37L7 37L7 38L5 38L5 39L12 39L12 40L14 40L14 41L10 41L10 40L6 40L6 41L8 41L8 42L9 42L9 41L10 41L10 44L8 44L8 46L10 46L10 47L8 47L8 49L9 49L9 48L11 48L11 47L12 47L12 45L13 45L13 47L15 47L15 48L14 48L14 49L17 49L17 48L16 48L16 47L17 47L17 46L18 46L18 49L19 49L19 47L20 47L20 46L22 46L22 45L23 45L23 46L27 46L27 45L28 45L28 46L29 46L29 44L30 44L30 47L28 47L28 48L27 48L27 49L30 49L30 48L31 48L31 45L32 45L32 47L34 47L34 48L35 48L35 49L36 49L36 48L37 48L37 49L38 49L38 46L39 46L39 47L40 47L40 48L39 48L39 49L45 49L45 47L46 47L46 46L47 46L47 47L49 47L49 45L46 45L46 44L49 44L49 41L48 41L48 40L47 40L47 39L49 39L49 33L47 33L47 32L45 32L45 31L46 31L46 30L49 30L49 27L48 27L48 26L47 26L47 27L46 27L46 28L45 28L45 26L46 26L46 25L47 25L47 24L48 24L48 25L49 25L49 23L46 23L46 22L47 22L47 21L49 21L49 19L48 19L48 17L49 17L49 16L48 16L48 17L46 17L46 16L47 16L47 15L48 15L48 13L49 13L49 8L48 8L48 9L44 9L44 10L43 10L43 11L42 11L42 9L43 9L43 8L42 8L42 9L41 9L41 8L40 8L40 7L41 7L41 6L40 6L40 7L39 7L39 5L37 5L37 4L36 4L36 3L35 3L35 1L34 1L34 0L31 0L31 2L28 2L28 0L27 0L27 2L28 2L28 4L27 4L27 3L25 3L25 4L24 4L24 3L23 3L23 2L21 2L21 4L20 4L20 5L19 5L19 3L20 3L20 1L24 1L24 2L26 2L26 1L24 1L24 0L16 0L16 1L18 1L18 2L16 2L16 3L15 3L15 2L13 2L13 1L15 1L15 0L13 0L13 1L10 1L10 0ZM29 0L29 1L30 1L30 0ZM37 0L37 1L36 1L36 2L37 2L37 3L38 3L38 2L39 2L39 4L40 4L40 3L41 3L41 0L40 0L40 1L38 1L38 0ZM33 1L33 2L32 2L32 3L34 3L34 1ZM18 2L18 3L17 3L17 4L16 4L16 5L17 5L17 7L16 7L16 6L15 6L15 5L14 5L14 6L13 6L13 7L14 7L14 6L15 6L15 8L13 8L13 9L12 9L12 10L13 10L13 11L14 11L14 12L16 12L16 11L14 11L14 10L13 10L13 9L15 9L15 10L16 10L16 9L15 9L15 8L17 8L17 10L18 10L18 8L17 8L17 7L18 7L18 3L19 3L19 2ZM14 3L14 4L15 4L15 3ZM22 3L22 4L21 4L21 7L22 7L22 4L23 4L23 3ZM29 3L29 4L28 4L28 5L29 5L29 7L30 7L30 5L29 5L29 4L31 4L31 5L32 5L32 6L31 6L31 8L32 8L32 10L30 10L30 11L29 11L29 9L30 9L30 8L27 8L27 10L26 10L26 9L23 9L23 13L21 13L21 14L22 14L22 15L21 15L21 16L20 16L20 14L19 14L19 16L20 16L20 17L21 17L21 16L22 16L22 17L23 17L23 18L22 18L22 20L21 20L21 22L20 22L20 21L19 21L19 20L20 20L20 19L21 19L21 18L20 18L20 19L19 19L19 17L18 17L18 18L17 18L17 19L16 19L16 16L17 16L17 14L18 14L18 13L17 13L17 14L16 14L16 16L15 16L15 14L14 14L14 13L12 13L12 12L11 12L11 11L10 11L10 10L11 10L11 9L10 9L10 10L8 10L8 11L6 11L6 10L7 10L7 9L6 9L6 10L4 10L4 9L3 9L3 10L2 10L2 9L1 9L1 10L2 10L2 11L1 11L1 12L2 12L2 13L1 13L1 16L2 16L2 17L3 17L3 16L2 16L2 15L3 15L3 13L4 13L4 12L2 12L2 11L6 11L6 12L5 12L5 13L6 13L6 14L8 14L8 15L6 15L6 16L4 16L4 18L3 18L3 20L4 20L4 21L3 21L3 25L4 25L4 22L5 22L5 21L6 21L6 22L7 22L7 21L8 21L8 19L9 19L9 20L10 20L10 21L9 21L9 24L10 24L10 26L12 26L12 29L11 29L11 30L10 30L10 29L8 29L8 28L9 28L9 27L4 27L4 28L3 28L3 27L2 27L2 28L3 28L3 29L4 29L4 28L7 28L7 29L6 29L6 30L7 30L7 31L6 31L6 32L7 32L7 31L9 31L9 32L8 32L8 33L9 33L9 34L8 34L8 35L11 35L11 34L12 34L12 35L13 35L13 37L15 37L15 38L13 38L13 39L15 39L15 42L19 42L19 44L20 44L20 45L19 45L19 46L20 46L20 45L22 45L22 44L20 44L20 43L21 43L21 41L20 41L20 42L19 42L19 41L17 41L17 40L18 40L18 39L17 39L17 40L16 40L16 38L18 38L18 37L19 37L19 40L20 40L20 37L19 37L19 34L20 34L20 36L21 36L21 38L23 38L23 39L26 39L26 40L27 40L27 43L28 43L28 42L29 42L29 43L30 43L30 42L29 42L29 40L28 40L28 38L29 38L29 39L32 39L32 41L31 41L31 40L30 40L30 41L31 41L31 42L32 42L32 41L33 41L33 42L34 42L34 38L36 38L36 37L33 37L33 38L31 38L31 37L32 37L32 36L33 36L33 35L34 35L34 34L35 34L35 36L36 36L36 34L37 34L37 32L38 32L38 30L39 30L39 29L38 29L38 28L37 28L37 29L36 29L36 30L37 30L37 32L35 32L35 31L32 31L32 29L33 29L33 25L34 25L34 27L35 27L35 28L34 28L34 30L35 30L35 28L36 28L36 27L35 27L35 26L38 26L38 27L39 27L39 28L40 28L40 30L41 30L41 29L42 29L42 28L41 28L41 27L40 27L40 23L39 23L39 22L38 22L38 25L35 25L35 24L37 24L37 23L36 23L36 22L35 22L35 21L36 21L36 20L38 20L38 21L40 21L40 20L41 20L41 22L42 22L42 20L41 20L41 19L43 19L43 20L44 20L44 21L43 21L43 22L44 22L44 21L45 21L45 20L46 20L46 21L47 21L47 18L46 18L46 19L45 19L45 20L44 20L44 18L45 18L45 17L44 17L44 16L43 16L43 18L40 18L40 16L38 16L38 15L40 15L40 14L43 14L43 15L45 15L45 16L46 16L46 15L47 15L47 13L48 13L48 12L47 12L47 11L46 11L46 12L45 12L45 14L44 14L44 13L41 13L41 12L42 12L42 11L41 11L41 12L39 12L39 11L37 11L37 12L38 12L38 13L39 13L39 14L38 14L38 15L37 15L37 16L36 16L36 18L34 18L34 13L33 13L33 11L32 11L32 10L34 10L34 11L35 11L35 12L36 12L36 10L38 10L38 9L37 9L37 8L38 8L38 6L37 6L37 7L36 7L36 5L35 5L35 4L31 4L31 3ZM9 4L9 5L11 5L11 4ZM23 5L23 8L26 8L26 5ZM34 5L34 7L35 7L35 9L34 9L34 8L33 8L33 6L32 6L32 8L33 8L33 9L34 9L34 10L35 10L35 9L36 9L36 7L35 7L35 5ZM19 6L19 7L20 7L20 6ZM24 6L24 7L25 7L25 6ZM27 6L27 7L28 7L28 6ZM19 9L19 10L20 10L20 11L19 11L19 12L21 12L21 9ZM39 9L39 10L41 10L41 9ZM24 10L24 13L25 13L25 14L23 14L23 15L22 15L22 16L23 16L23 17L25 17L25 16L24 16L24 15L25 15L25 14L26 14L26 18L25 18L25 19L26 19L26 20L24 20L24 21L23 21L23 20L22 20L22 23L21 23L21 25L19 25L19 23L20 23L20 22L19 22L19 21L18 21L18 20L16 20L16 19L15 19L15 20L14 20L14 19L13 19L13 18L11 18L11 15L12 15L12 17L13 17L13 15L14 15L14 14L12 14L12 13L11 13L11 12L10 12L10 11L8 11L8 12L6 12L6 13L8 13L8 14L9 14L9 15L10 15L10 16L9 16L9 17L7 17L7 16L6 16L6 17L5 17L5 18L4 18L4 19L5 19L5 18L6 18L6 19L7 19L7 18L9 18L9 17L10 17L10 18L11 18L11 19L13 19L13 20L12 20L12 21L13 21L13 20L14 20L14 22L13 22L13 23L12 23L12 22L11 22L11 21L10 21L10 23L12 23L12 24L11 24L11 25L13 25L13 23L15 23L15 20L16 20L16 22L17 22L17 21L18 21L18 22L19 22L19 23L16 23L16 25L17 25L17 26L15 26L15 24L14 24L14 26L13 26L13 28L14 28L14 29L13 29L13 30L11 30L11 31L10 31L10 32L9 32L9 33L10 33L10 32L11 32L11 31L13 31L13 32L12 32L12 33L13 33L13 32L14 32L14 33L15 33L15 32L17 32L17 31L18 31L18 33L16 33L16 34L15 34L15 35L14 35L14 34L13 34L13 35L14 35L14 36L16 36L16 37L17 37L17 36L18 36L18 35L16 35L16 34L19 34L19 33L20 33L20 34L21 34L21 31L22 31L22 30L23 30L23 32L22 32L22 33L23 33L23 32L24 32L24 31L25 31L25 32L26 32L26 31L25 31L25 29L27 29L27 30L28 30L28 31L27 31L27 32L28 32L28 33L29 33L29 32L31 32L31 34L29 34L29 35L27 35L27 34L26 34L26 33L24 33L24 34L22 34L22 35L24 35L24 37L25 37L25 38L26 38L26 39L27 39L27 38L26 38L26 37L29 37L29 35L30 35L30 37L31 37L31 36L32 36L32 35L33 35L33 34L34 34L34 32L33 32L33 34L32 34L32 31L31 31L31 29L32 29L32 28L31 28L31 27L32 27L32 26L31 26L31 25L33 25L33 24L31 24L31 23L34 23L34 24L35 24L35 23L34 23L34 21L35 21L35 20L36 20L36 19L38 19L38 20L40 20L40 18L36 18L36 19L35 19L35 20L34 20L34 18L33 18L33 16L32 16L32 17L30 17L30 16L31 16L31 14L32 14L32 11L30 11L30 12L28 12L28 11L27 11L27 13L26 13L26 10ZM43 11L43 12L44 12L44 11ZM8 12L8 13L9 13L9 14L11 14L11 13L9 13L9 12ZM30 12L30 13L31 13L31 12ZM46 12L46 13L47 13L47 12ZM27 13L27 15L28 15L28 17L27 17L27 18L26 18L26 19L28 19L28 20L27 20L27 21L26 21L26 22L27 22L27 24L28 24L28 23L29 23L29 24L30 24L30 25L29 25L29 26L30 26L30 27L29 27L29 28L28 28L28 27L27 27L27 29L29 29L29 28L30 28L30 29L31 29L31 28L30 28L30 27L31 27L31 26L30 26L30 25L31 25L31 24L30 24L30 23L31 23L31 21L32 21L32 22L33 22L33 20L30 20L30 17L29 17L29 15L30 15L30 14L29 14L29 13ZM35 13L35 14L36 14L36 13ZM4 14L4 15L5 15L5 14ZM28 14L28 15L29 15L29 14ZM45 14L45 15L46 15L46 14ZM14 16L14 17L15 17L15 16ZM6 17L6 18L7 18L7 17ZM23 18L23 19L24 19L24 18ZM28 18L28 19L29 19L29 18ZM1 20L1 21L2 21L2 20ZM6 20L6 21L7 21L7 20ZM28 20L28 22L29 22L29 23L30 23L30 22L29 22L29 21L30 21L30 20ZM24 21L24 22L25 22L25 21ZM5 23L5 26L8 26L8 23ZM23 23L23 26L26 26L26 23ZM41 23L41 26L44 26L44 23ZM45 23L45 25L46 25L46 23ZM6 24L6 25L7 25L7 24ZM24 24L24 25L25 25L25 24ZM42 24L42 25L43 25L43 24ZM18 25L18 26L17 26L17 27L18 27L18 26L19 26L19 27L20 27L20 26L19 26L19 25ZM21 25L21 28L20 28L20 29L22 29L22 25ZM27 25L27 26L28 26L28 25ZM38 25L38 26L39 26L39 25ZM14 26L14 27L15 27L15 26ZM10 27L10 28L11 28L11 27ZM25 27L25 28L23 28L23 29L25 29L25 28L26 28L26 27ZM47 27L47 29L48 29L48 27ZM16 28L16 31L17 31L17 30L18 30L18 31L19 31L19 30L18 30L18 29L17 29L17 28ZM43 28L43 29L44 29L44 30L42 30L42 31L43 31L43 33L42 33L42 32L41 32L41 31L40 31L40 33L39 33L39 34L40 34L40 36L41 36L41 38L40 38L40 37L39 37L39 38L40 38L40 39L39 39L39 40L38 40L38 39L35 39L35 41L36 41L36 42L35 42L35 43L34 43L34 44L35 44L35 45L34 45L34 46L35 46L35 48L36 48L36 45L37 45L37 46L38 46L38 45L39 45L39 46L41 46L41 48L42 48L42 46L41 46L41 45L39 45L39 44L38 44L38 43L37 43L37 44L35 44L35 43L36 43L36 42L40 42L40 41L39 41L39 40L41 40L41 39L42 39L42 36L41 36L41 34L43 34L43 35L44 35L44 36L43 36L43 37L46 37L46 38L48 38L48 36L47 36L47 37L46 37L46 36L45 36L45 35L44 35L44 34L45 34L45 32L44 32L44 30L46 30L46 29L44 29L44 28ZM14 29L14 30L13 30L13 31L14 31L14 30L15 30L15 29ZM20 30L20 31L21 31L21 30ZM28 31L28 32L29 32L29 31ZM43 33L43 34L44 34L44 33ZM24 34L24 35L25 35L25 34ZM31 34L31 35L32 35L32 34ZM26 35L26 36L25 36L25 37L26 37L26 36L27 36L27 35ZM38 35L38 36L37 36L37 37L38 37L38 36L39 36L39 35ZM9 36L9 37L11 37L11 38L12 38L12 36ZM22 36L22 37L23 37L23 36ZM43 38L43 39L45 39L45 38ZM21 39L21 40L22 40L22 39ZM46 40L46 41L45 41L45 44L46 44L46 43L47 43L47 42L48 42L48 41L47 41L47 40ZM23 41L23 44L26 44L26 41ZM41 41L41 44L44 44L44 41ZM46 41L46 42L47 42L47 41ZM24 42L24 43L25 43L25 42ZM42 42L42 43L43 43L43 42ZM12 43L12 44L11 44L11 45L12 45L12 44L14 44L14 45L15 45L15 44L14 44L14 43ZM16 43L16 44L17 44L17 45L16 45L16 46L17 46L17 45L18 45L18 44L17 44L17 43ZM32 43L32 44L33 44L33 43ZM37 44L37 45L38 45L38 44ZM43 45L43 48L44 48L44 45ZM23 47L23 48L21 48L21 49L23 49L23 48L24 48L24 49L25 49L25 48L24 48L24 47ZM12 48L12 49L13 49L13 48ZM32 48L32 49L33 49L33 48ZM46 48L46 49L47 49L47 48ZM48 48L48 49L49 49L49 48ZM0 0L0 7L7 7L7 0ZM1 1L1 6L6 6L6 1ZM2 2L2 5L5 5L5 2ZM42 0L42 7L49 7L49 0ZM43 1L43 6L48 6L48 1ZM44 2L44 5L47 5L47 2ZM0 42L0 49L7 49L7 42ZM1 43L1 48L6 48L6 43ZM2 44L2 47L5 47L5 44Z" fill="#000000"/></g></g></svg>
