<?xml version="1.0" encoding="UTF-8"?>
<svg xmlns="http://www.w3.org/2000/svg" version="1.1" width="100" height="100" viewBox="0 0 100 100"><rect x="0" y="0" width="100" height="100" fill="#ffffff"/><g transform="scale(1.887)"><g transform="translate(0,0)"><path fill-rule="evenodd" d="M9 0L9 1L10 1L10 0ZM12 0L12 1L11 1L11 2L8 2L8 3L9 3L9 4L10 4L10 5L9 5L9 6L8 6L8 8L4 8L4 9L3 9L3 8L0 8L0 10L1 10L1 13L0 13L0 14L1 14L1 15L2 15L2 16L1 16L1 17L0 17L0 19L1 19L1 18L2 18L2 19L3 19L3 20L4 20L4 18L3 18L3 17L7 17L7 18L6 18L6 19L7 19L7 20L6 20L6 21L5 21L5 22L4 22L4 21L1 21L1 20L0 20L0 21L1 21L1 22L4 22L4 23L2 23L2 24L1 24L1 23L0 23L0 26L1 26L1 27L2 27L2 28L0 28L0 30L2 30L2 28L3 28L3 29L5 29L5 30L4 30L4 31L3 31L3 34L1 34L1 38L0 38L0 39L1 39L1 42L0 42L0 43L1 43L1 44L3 44L3 45L4 45L4 44L3 44L3 43L9 43L9 42L10 42L10 44L6 44L6 45L8 45L8 49L9 49L9 50L8 50L8 53L9 53L9 51L10 51L10 49L11 49L11 48L12 48L12 47L11 47L11 46L12 46L12 45L13 45L13 46L14 46L14 47L13 47L13 48L14 48L14 47L15 47L15 46L14 46L14 44L15 44L15 45L17 45L17 43L19 43L19 44L18 44L18 46L16 46L16 47L17 47L17 48L15 48L15 49L12 49L12 51L11 51L11 52L10 52L10 53L11 53L11 52L12 52L12 53L15 53L15 52L16 52L16 53L17 53L17 52L18 52L18 53L21 53L21 52L22 52L22 51L23 51L23 50L21 50L21 48L20 48L20 50L21 50L21 51L20 51L20 52L19 52L19 50L18 50L18 48L19 48L19 47L18 47L18 46L20 46L20 47L21 47L21 46L22 46L22 47L23 47L23 48L22 48L22 49L23 49L23 48L24 48L24 51L25 51L25 50L26 50L26 49L28 49L28 50L27 50L27 51L29 51L29 50L30 50L30 48L29 48L29 45L30 45L30 44L28 44L28 42L26 42L26 44L25 44L25 42L24 42L24 43L23 43L23 42L22 42L22 40L23 40L23 39L22 39L22 38L23 38L23 36L24 36L24 37L25 37L25 41L27 41L27 40L28 40L28 39L27 39L27 38L26 38L26 37L27 37L27 35L28 35L28 36L29 36L29 35L30 35L30 33L29 33L29 35L28 35L28 34L27 34L27 33L28 33L28 31L27 31L27 30L28 30L28 29L29 29L29 26L30 26L30 27L31 27L31 28L32 28L32 29L30 29L30 30L29 30L29 31L30 31L30 30L32 30L32 31L31 31L31 32L32 32L32 33L31 33L31 36L33 36L33 35L34 35L34 34L33 34L33 31L34 31L34 29L33 29L33 28L32 28L32 27L34 27L34 26L33 26L33 25L34 25L34 23L35 23L35 28L36 28L36 29L35 29L35 30L36 30L36 31L35 31L35 32L34 32L34 33L35 33L35 32L36 32L36 35L39 35L39 36L40 36L40 37L37 37L37 36L35 36L35 37L32 37L32 39L33 39L33 40L34 40L34 41L32 41L32 40L31 40L31 42L29 42L29 43L31 43L31 46L30 46L30 47L32 47L32 48L31 48L31 51L32 51L32 53L34 53L34 52L36 52L36 53L37 53L37 52L38 52L38 51L37 51L37 50L39 50L39 51L42 51L42 50L40 50L40 49L41 49L41 48L40 48L40 49L38 49L38 47L41 47L41 45L40 45L40 43L41 43L41 42L42 42L42 43L43 43L43 44L44 44L44 45L43 45L43 46L42 46L42 47L43 47L43 46L44 46L44 49L43 49L43 48L42 48L42 49L43 49L43 50L44 50L44 51L43 51L43 52L44 52L44 53L49 53L49 52L48 52L48 51L47 51L47 50L49 50L49 48L50 48L50 49L53 49L53 48L52 48L52 47L53 47L53 45L51 45L51 44L53 44L53 42L52 42L52 41L53 41L53 38L51 38L51 39L50 39L50 37L52 37L52 35L53 35L53 28L52 28L52 26L53 26L53 23L51 23L51 28L49 28L49 24L50 24L50 22L49 22L49 21L47 21L47 22L46 22L46 21L45 21L45 20L46 20L46 19L49 19L49 18L48 18L48 16L50 16L50 15L49 15L49 13L48 13L48 12L50 12L50 13L53 13L53 11L52 11L52 10L51 10L51 12L50 12L50 11L49 11L49 10L50 10L50 9L51 9L51 8L50 8L50 9L47 9L47 8L45 8L45 10L44 10L44 9L43 9L43 8L42 8L42 9L41 9L41 8L39 8L39 10L38 10L38 11L39 11L39 12L38 12L38 13L39 13L39 12L40 12L40 15L39 15L39 16L41 16L41 18L40 18L40 17L37 17L37 16L36 16L36 15L37 15L37 13L36 13L36 12L37 12L37 10L35 10L35 11L36 11L36 12L35 12L35 13L34 13L34 15L33 15L33 11L34 11L34 7L35 7L35 8L36 8L36 9L38 9L38 8L37 8L37 6L38 6L38 7L39 7L39 6L40 6L40 7L41 7L41 6L40 6L40 3L41 3L41 2L40 2L40 3L39 3L39 1L38 1L38 0L37 0L37 2L38 2L38 3L36 3L36 4L38 4L38 3L39 3L39 5L37 5L37 6L36 6L36 7L35 7L35 2L36 2L36 0L34 0L34 1L35 1L35 2L32 2L32 3L31 3L31 2L30 2L30 1L31 1L31 0L28 0L28 1L27 1L27 0L24 0L24 1L25 1L25 2L24 2L24 3L23 3L23 2L22 2L22 3L23 3L23 4L22 4L22 7L21 7L21 6L20 6L20 5L21 5L21 4L19 4L19 3L20 3L20 2L21 2L21 1L23 1L23 0L21 0L21 1L20 1L20 0L18 0L18 1L19 1L19 2L18 2L18 4L17 4L17 6L16 6L16 5L15 5L15 4L14 4L14 3L15 3L15 2L14 2L14 3L13 3L13 2L12 2L12 1L15 1L15 0ZM16 0L16 1L17 1L17 0ZM41 0L41 1L42 1L42 2L43 2L43 3L42 3L42 7L43 7L43 3L44 3L44 4L45 4L45 3L44 3L44 1L43 1L43 0ZM28 1L28 2L29 2L29 1ZM16 2L16 3L17 3L17 2ZM10 3L10 4L11 4L11 3ZM24 3L24 4L23 4L23 5L24 5L24 4L25 4L25 3ZM26 3L26 4L29 4L29 3ZM32 3L32 4L31 4L31 5L30 5L30 6L29 6L29 9L28 9L28 10L27 10L27 9L24 9L24 10L23 10L23 8L22 8L22 10L23 10L23 11L22 11L22 12L21 12L21 11L20 11L20 12L19 12L19 11L18 11L18 12L19 12L19 13L17 13L17 12L16 12L16 11L17 11L17 10L19 10L19 9L18 9L18 8L21 8L21 7L20 7L20 6L19 6L19 5L18 5L18 6L17 6L17 7L16 7L16 6L15 6L15 8L14 8L14 10L15 10L15 11L14 11L14 14L13 14L13 12L11 12L11 11L10 11L10 10L12 10L12 11L13 11L13 9L12 9L12 8L11 8L11 7L12 7L12 6L13 6L13 7L14 7L14 5L11 5L11 7L10 7L10 6L9 6L9 8L11 8L11 9L9 9L9 12L8 12L8 9L6 9L6 10L7 10L7 11L5 11L5 10L3 10L3 9L2 9L2 11L3 11L3 12L2 12L2 13L1 13L1 14L2 14L2 15L3 15L3 16L4 16L4 15L5 15L5 16L7 16L7 17L8 17L8 18L9 18L9 19L8 19L8 20L7 20L7 21L6 21L6 22L5 22L5 24L7 24L7 23L8 23L8 24L9 24L9 25L11 25L11 26L12 26L12 25L11 25L11 24L9 24L9 23L11 23L11 21L9 21L9 20L11 20L11 19L13 19L13 18L15 18L15 17L14 17L14 16L17 16L17 15L16 15L16 14L18 14L18 15L19 15L19 16L18 16L18 18L19 18L19 19L18 19L18 21L19 21L19 23L18 23L18 22L17 22L17 23L16 23L16 21L17 21L17 19L16 19L16 20L15 20L15 19L14 19L14 20L15 20L15 21L13 21L13 20L12 20L12 24L13 24L13 22L14 22L14 23L15 23L15 24L14 24L14 26L15 26L15 27L13 27L13 30L12 30L12 28L11 28L11 27L10 27L10 26L9 26L9 28L10 28L10 29L9 29L9 30L8 30L8 29L6 29L6 30L5 30L5 31L4 31L4 33L5 33L5 31L6 31L6 32L7 32L7 33L6 33L6 34L7 34L7 33L8 33L8 34L9 34L9 36L8 36L8 35L6 35L6 36L5 36L5 37L3 37L3 35L4 35L4 34L3 34L3 35L2 35L2 37L3 37L3 38L5 38L5 39L3 39L3 41L4 41L4 40L5 40L5 39L6 39L6 40L7 40L7 41L5 41L5 42L7 42L7 41L10 41L10 40L7 40L7 39L6 39L6 38L7 38L7 37L6 37L6 36L8 36L8 37L9 37L9 38L8 38L8 39L9 39L9 38L10 38L10 37L11 37L11 38L13 38L13 37L15 37L15 35L14 35L14 34L15 34L15 33L14 33L14 32L17 32L17 31L16 31L16 30L17 30L17 29L15 29L15 31L14 31L14 28L16 28L16 27L17 27L17 28L19 28L19 29L18 29L18 31L20 31L20 32L18 32L18 34L19 34L19 35L18 35L18 37L17 37L17 35L16 35L16 38L17 38L17 39L15 39L15 38L14 38L14 39L15 39L15 40L14 40L14 42L15 42L15 44L16 44L16 43L17 43L17 42L19 42L19 41L18 41L18 40L21 40L21 39L20 39L20 38L22 38L22 36L23 36L23 35L22 35L22 36L21 36L21 37L20 37L20 38L19 38L19 39L18 39L18 37L19 37L19 36L20 36L20 35L21 35L21 34L23 34L23 33L24 33L24 34L25 34L25 35L26 35L26 34L25 34L25 29L24 29L24 28L23 28L23 27L22 27L22 28L21 28L21 27L20 27L20 28L19 28L19 27L17 27L17 26L19 26L19 25L18 25L18 24L21 24L21 23L20 23L20 22L21 22L21 21L19 21L19 20L20 20L20 19L21 19L21 18L23 18L23 19L22 19L22 20L23 20L23 21L22 21L22 23L23 23L23 24L22 24L22 26L23 26L23 25L24 25L24 23L25 23L25 24L26 24L26 23L27 23L27 24L28 24L28 23L30 23L30 24L29 24L29 25L30 25L30 26L32 26L32 24L31 24L31 23L32 23L32 20L34 20L34 21L33 21L33 22L35 22L35 21L36 21L36 19L35 19L35 18L37 18L37 17L36 17L36 16L35 16L35 15L34 15L34 19L30 19L30 17L31 17L31 16L33 16L33 15L32 15L32 13L31 13L31 11L32 11L32 10L31 10L31 9L32 9L32 8L33 8L33 7L34 7L34 4L33 4L33 3ZM25 5L25 8L28 8L28 5ZM31 5L31 6L30 6L30 7L31 7L31 8L32 8L32 7L33 7L33 6L32 6L32 5ZM18 6L18 7L19 7L19 6ZM23 6L23 7L24 7L24 6ZM26 6L26 7L27 7L27 6ZM31 6L31 7L32 7L32 6ZM44 6L44 7L45 7L45 6ZM16 8L16 10L17 10L17 8ZM20 9L20 10L21 10L21 9ZM40 9L40 10L41 10L41 9ZM42 9L42 10L43 10L43 9ZM46 9L46 10L45 10L45 11L41 11L41 16L43 16L43 19L40 19L40 18L39 18L39 19L37 19L37 22L39 22L39 23L36 23L36 24L37 24L37 25L36 25L36 26L37 26L37 27L36 27L36 28L37 28L37 29L38 29L38 31L37 31L37 33L38 33L38 34L39 34L39 32L40 32L40 34L43 34L43 35L42 35L42 36L41 36L41 35L40 35L40 36L41 36L41 37L42 37L42 38L41 38L41 39L40 39L40 38L39 38L39 39L38 39L38 38L37 38L37 43L36 43L36 39L34 39L34 40L35 40L35 42L33 42L33 44L32 44L32 45L34 45L34 47L33 47L33 48L32 48L32 49L33 49L33 51L36 51L36 52L37 52L37 51L36 51L36 50L34 50L34 48L35 48L35 49L36 49L36 48L37 48L37 47L36 47L36 48L35 48L35 45L34 45L34 43L36 43L36 44L37 44L37 45L38 45L38 46L39 46L39 43L38 43L38 42L39 42L39 40L40 40L40 42L41 42L41 41L42 41L42 42L43 42L43 43L45 43L45 44L49 44L49 43L51 43L51 40L49 40L49 39L47 39L47 38L49 38L49 37L50 37L50 36L51 36L51 35L52 35L52 33L50 33L50 34L49 34L49 32L51 32L51 31L52 31L52 29L48 29L48 30L47 30L47 29L46 29L46 30L45 30L45 29L44 29L44 28L43 28L43 27L44 27L44 26L43 26L43 25L44 25L44 24L49 24L49 23L46 23L46 22L45 22L45 21L44 21L44 20L45 20L45 19L44 19L44 18L46 18L46 16L47 16L47 14L42 14L42 13L45 13L45 11L46 11L46 13L47 13L47 12L48 12L48 10L47 10L47 9ZM24 10L24 12L25 12L25 10ZM26 10L26 13L27 13L27 14L28 14L28 15L27 15L27 16L25 16L25 15L24 15L24 17L27 17L27 16L28 16L28 17L29 17L29 15L31 15L31 14L28 14L28 13L29 13L29 11L31 11L31 10L28 10L28 11L27 11L27 10ZM46 10L46 11L47 11L47 10ZM4 11L4 12L3 12L3 13L2 13L2 14L3 14L3 13L5 13L5 11ZM6 12L6 13L7 13L7 12ZM15 12L15 14L14 14L14 15L15 15L15 14L16 14L16 12ZM20 12L20 15L21 15L21 12ZM27 12L27 13L28 13L28 12ZM8 13L8 14L6 14L6 15L7 15L7 16L9 16L9 17L10 17L10 18L11 18L11 17L12 17L12 18L13 18L13 16L12 16L12 15L13 15L13 14L12 14L12 15L11 15L11 17L10 17L10 15L8 15L8 14L9 14L9 13ZM10 13L10 14L11 14L11 13ZM24 13L24 14L25 14L25 13ZM22 14L22 15L23 15L23 14ZM52 14L52 15L51 15L51 17L52 17L52 18L51 18L51 20L50 20L50 21L51 21L51 22L52 22L52 21L53 21L53 19L52 19L52 18L53 18L53 14ZM20 16L20 18L21 18L21 16ZM22 16L22 17L23 17L23 16ZM16 17L16 18L17 18L17 17ZM24 18L24 19L23 19L23 20L24 20L24 21L23 21L23 23L24 23L24 21L27 21L27 22L30 22L30 23L31 23L31 22L30 22L30 21L29 21L29 20L30 20L30 19L29 19L29 18L26 18L26 19L25 19L25 18ZM24 19L24 20L25 20L25 19ZM26 19L26 20L27 20L27 19ZM39 19L39 20L40 20L40 23L39 23L39 26L38 26L38 27L39 27L39 28L40 28L40 32L41 32L41 31L42 31L42 30L43 30L43 29L42 29L42 30L41 30L41 26L42 26L42 25L43 25L43 24L44 24L44 23L43 23L43 22L44 22L44 21L41 21L41 20L40 20L40 19ZM7 21L7 22L6 22L6 23L7 23L7 22L8 22L8 23L9 23L9 21ZM41 23L41 24L40 24L40 26L41 26L41 24L43 24L43 23ZM16 24L16 26L17 26L17 24ZM1 25L1 26L2 26L2 27L4 27L4 25ZM5 25L5 28L8 28L8 25ZM20 25L20 26L21 26L21 25ZM25 25L25 28L28 28L28 25ZM45 25L45 28L48 28L48 25ZM6 26L6 27L7 27L7 26ZM26 26L26 27L27 27L27 26ZM46 26L46 27L47 27L47 26ZM20 28L20 29L19 29L19 30L20 30L20 29L21 29L21 28ZM22 28L22 29L23 29L23 30L22 30L22 31L23 31L23 30L24 30L24 29L23 29L23 28ZM10 29L10 30L11 30L11 31L9 31L9 32L12 32L12 33L10 33L10 34L12 34L12 35L11 35L11 37L13 37L13 36L14 36L14 35L13 35L13 32L12 32L12 30L11 30L11 29ZM26 29L26 30L27 30L27 29ZM6 30L6 31L7 31L7 32L8 32L8 31L7 31L7 30ZM46 30L46 31L47 31L47 30ZM48 30L48 31L49 31L49 30ZM1 31L1 32L2 32L2 31ZM26 31L26 33L27 33L27 31ZM43 31L43 32L42 32L42 33L43 33L43 32L44 32L44 35L43 35L43 38L42 38L42 39L41 39L41 40L42 40L42 39L43 39L43 40L44 40L44 42L45 42L45 43L47 43L47 42L49 42L49 40L47 40L47 39L46 39L46 37L49 37L49 36L50 36L50 35L49 35L49 36L45 36L45 31ZM20 32L20 34L21 34L21 32ZM22 32L22 33L23 33L23 32ZM46 32L46 35L47 35L47 34L48 34L48 32ZM16 33L16 34L17 34L17 33ZM12 35L12 36L13 36L13 35ZM25 36L25 37L26 37L26 36ZM5 37L5 38L6 38L6 37ZM29 37L29 39L30 39L30 37ZM1 38L1 39L2 39L2 38ZM43 38L43 39L44 39L44 38ZM11 39L11 42L12 42L12 44L13 44L13 42L12 42L12 41L13 41L13 40L12 40L12 39ZM26 39L26 40L27 40L27 39ZM16 40L16 42L17 42L17 40ZM29 40L29 41L30 41L30 40ZM45 40L45 42L46 42L46 40ZM20 41L20 42L21 42L21 41ZM2 42L2 43L3 43L3 42ZM20 43L20 46L21 46L21 44L23 44L23 45L22 45L22 46L23 46L23 47L24 47L24 46L23 46L23 45L24 45L24 44L23 44L23 43ZM10 45L10 46L11 46L11 45ZM25 45L25 48L28 48L28 45ZM45 45L45 48L48 48L48 45ZM50 45L50 46L49 46L49 47L50 47L50 48L51 48L51 45ZM26 46L26 47L27 47L27 46ZM46 46L46 47L47 47L47 46ZM9 47L9 48L10 48L10 47ZM16 49L16 50L17 50L17 51L16 51L16 52L17 52L17 51L18 51L18 50L17 50L17 49ZM44 49L44 50L47 50L47 49ZM14 50L14 51L12 51L12 52L15 52L15 50ZM52 50L52 52L51 52L51 51L50 51L50 52L51 52L51 53L53 53L53 50ZM45 51L45 52L47 52L47 51ZM24 52L24 53L25 53L25 52ZM26 52L26 53L30 53L30 52ZM39 52L39 53L41 53L41 52ZM0 0L0 7L7 7L7 0ZM1 1L1 6L6 6L6 1ZM2 2L2 5L5 5L5 2ZM46 0L46 7L53 7L53 0ZM47 1L47 6L52 6L52 1ZM48 2L48 5L51 5L51 2ZM0 46L0 53L7 53L7 46ZM1 47L1 52L6 52L6 47ZM2 48L2 51L5 51L5 48Z" fill="#000000"/></g></g></svg>
