<?xml version="1.0" encoding="UTF-8"?>
<svg xmlns="http://www.w3.org/2000/svg" version="1.1" width="100" height="100" viewBox="0 0 100 100"><rect x="0" y="0" width="100" height="100" fill="#ffffff"/><g transform="scale(2.222)"><g transform="translate(0,0)"><path fill-rule="evenodd" d="M8 0L8 2L9 2L9 0ZM10 0L10 3L9 3L9 4L8 4L8 9L7 9L7 8L5 8L5 10L6 10L6 11L7 11L7 10L10 10L10 9L11 9L11 10L12 10L12 11L14 11L14 12L13 12L13 13L15 13L15 14L13 14L13 18L12 18L12 16L11 16L11 15L12 15L12 14L9 14L9 13L10 13L10 12L11 12L11 13L12 13L12 12L11 12L11 11L8 11L8 13L7 13L7 12L4 12L4 9L3 9L3 8L0 8L0 12L1 12L1 13L0 13L0 17L1 17L1 18L0 18L0 19L2 19L2 20L0 20L0 22L1 22L1 24L3 24L3 22L4 22L4 26L5 26L5 27L4 27L4 29L2 29L2 27L3 27L3 25L2 25L2 26L1 26L1 28L0 28L0 29L1 29L1 30L3 30L3 31L0 31L0 32L2 32L2 33L1 33L1 34L2 34L2 33L3 33L3 34L4 34L4 35L1 35L1 36L0 36L0 37L1 37L1 36L3 36L3 37L5 37L5 34L6 34L6 35L7 35L7 34L6 34L6 33L7 33L7 32L5 32L5 33L3 33L3 31L4 31L4 29L8 29L8 30L5 30L5 31L10 31L10 32L8 32L8 34L9 34L9 33L10 33L10 35L11 35L11 36L9 36L9 35L8 35L8 36L6 36L6 37L8 37L8 38L9 38L9 37L11 37L11 39L10 39L10 41L9 41L9 42L8 42L8 45L9 45L9 44L10 44L10 45L11 45L11 42L10 42L10 41L11 41L11 40L12 40L12 41L13 41L13 40L12 40L12 38L13 38L13 37L14 37L14 38L15 38L15 37L16 37L16 36L15 36L15 35L17 35L17 34L14 34L14 33L20 33L20 34L18 34L18 36L19 36L19 37L20 37L20 38L18 38L18 37L17 37L17 40L16 40L16 39L14 39L14 40L16 40L16 41L18 41L18 44L17 44L17 45L22 45L22 42L23 42L23 41L24 41L24 43L25 43L25 45L26 45L26 43L27 43L27 45L30 45L30 41L32 41L32 42L31 42L31 44L33 44L33 45L34 45L34 44L33 44L33 42L35 42L35 41L36 41L36 42L37 42L37 43L36 43L36 45L38 45L38 44L39 44L39 45L43 45L43 44L44 44L44 45L45 45L45 42L44 42L44 41L45 41L45 38L43 38L43 39L44 39L44 40L42 40L42 37L41 37L41 36L40 36L40 34L39 34L39 32L38 32L38 31L40 31L40 30L39 30L39 29L41 29L41 30L42 30L42 29L44 29L44 33L45 33L45 29L44 29L44 28L42 28L42 24L41 24L41 23L42 23L42 19L43 19L43 18L42 18L42 17L43 17L43 15L42 15L42 12L43 12L43 10L45 10L45 8L43 8L43 10L41 10L41 8L37 8L37 9L35 9L35 10L34 10L34 7L35 7L35 8L36 8L36 7L37 7L37 6L36 6L36 7L35 7L35 6L34 6L34 5L37 5L37 3L36 3L36 1L37 1L37 0L36 0L36 1L35 1L35 4L34 4L34 3L33 3L33 2L32 2L32 0L31 0L31 1L29 1L29 0L27 0L27 1L26 1L26 0L23 0L23 1L26 1L26 2L25 2L25 3L26 3L26 4L23 4L23 3L24 3L24 2L21 2L21 0L14 0L14 1L13 1L13 2L11 2L11 1L12 1L12 0ZM14 1L14 3L15 3L15 1ZM16 1L16 2L17 2L17 3L16 3L16 4L15 4L15 7L16 7L16 8L17 8L17 9L18 9L18 10L19 10L19 11L17 11L17 10L16 10L16 11L17 11L17 12L18 12L18 13L16 13L16 16L15 16L15 15L14 15L14 16L15 16L15 17L14 17L14 18L13 18L13 20L12 20L12 18L11 18L11 16L10 16L10 18L9 18L9 19L10 19L10 20L11 20L11 21L10 21L10 22L9 22L9 24L10 24L10 23L11 23L11 21L13 21L13 20L14 20L14 18L15 18L15 20L17 20L17 21L15 21L15 22L12 22L12 23L13 23L13 25L12 25L12 24L11 24L11 26L10 26L10 25L9 25L9 26L10 26L10 27L11 27L11 28L12 28L12 29L10 29L10 28L9 28L9 27L8 27L8 26L7 26L7 25L5 25L5 26L7 26L7 27L6 27L6 28L7 28L7 27L8 27L8 28L9 28L9 30L10 30L10 31L11 31L11 32L13 32L13 30L12 30L12 29L14 29L14 30L15 30L15 29L16 29L16 32L17 32L17 29L19 29L19 30L20 30L20 32L22 32L22 29L23 29L23 28L22 28L22 26L23 26L23 25L22 25L22 26L21 26L21 28L20 28L20 29L19 29L19 28L18 28L18 25L17 25L17 26L16 26L16 27L17 27L17 29L16 29L16 28L15 28L15 29L14 29L14 28L13 28L13 27L14 27L14 26L15 26L15 24L17 24L17 22L18 22L18 21L20 21L20 20L24 20L24 19L23 19L23 14L24 14L24 15L26 15L26 17L27 17L27 18L26 18L26 21L27 21L27 22L25 22L25 23L26 23L26 24L25 24L25 25L24 25L24 26L25 26L25 25L26 25L26 26L27 26L27 27L26 27L26 29L27 29L27 30L26 30L26 33L25 33L25 31L24 31L24 30L25 30L25 27L24 27L24 30L23 30L23 31L24 31L24 32L23 32L23 33L24 33L24 34L23 34L23 36L25 36L25 35L26 35L26 37L25 37L25 39L26 39L26 42L27 42L27 43L28 43L28 41L29 41L29 39L30 39L30 40L33 40L33 39L30 39L30 38L31 38L31 36L33 36L33 38L34 38L34 41L35 41L35 39L36 39L36 37L35 37L35 36L36 36L36 35L34 35L34 34L35 34L35 33L36 33L36 32L37 32L37 34L38 34L38 36L39 36L39 34L38 34L38 32L37 32L37 30L38 30L38 28L41 28L41 29L42 29L42 28L41 28L41 25L39 25L39 26L40 26L40 27L37 27L37 26L38 26L38 25L37 25L37 26L36 26L36 27L37 27L37 30L36 30L36 31L34 31L34 30L35 30L35 29L36 29L36 28L35 28L35 24L36 24L36 23L34 23L34 24L33 24L33 23L32 23L32 24L31 24L31 22L32 22L32 21L33 21L33 22L35 22L35 21L36 21L36 20L41 20L41 19L40 19L40 18L41 18L41 17L42 17L42 16L39 16L39 15L40 15L40 12L42 12L42 11L40 11L40 10L39 10L39 9L37 9L37 10L38 10L38 14L36 14L36 12L37 12L37 11L36 11L36 12L35 12L35 11L33 11L33 14L34 14L34 17L33 17L33 15L30 15L30 14L31 14L31 12L32 12L32 9L33 9L33 7L34 7L34 6L33 6L33 5L34 5L34 4L33 4L33 3L31 3L31 7L30 7L30 5L29 5L29 3L28 3L28 2L29 2L29 1L27 1L27 3L28 3L28 6L27 6L27 5L25 5L25 7L26 7L26 8L27 8L27 7L28 7L28 6L29 6L29 7L30 7L30 9L31 9L31 10L30 10L30 11L28 11L28 10L27 10L27 9L26 9L26 10L25 10L25 9L24 9L24 11L23 11L23 12L22 12L22 10L23 10L23 9L22 9L22 10L21 10L21 9L20 9L20 5L19 5L19 1L18 1L18 2L17 2L17 1ZM11 3L11 4L10 4L10 6L9 6L9 8L10 8L10 6L11 6L11 7L12 7L12 10L15 10L15 8L14 8L14 6L13 6L13 5L12 5L12 4L13 4L13 3ZM20 3L20 4L21 4L21 3ZM16 4L16 7L17 7L17 8L18 8L18 9L19 9L19 10L20 10L20 9L19 9L19 6L18 6L18 7L17 7L17 4ZM11 5L11 6L12 6L12 7L13 7L13 6L12 6L12 5ZM21 5L21 8L24 8L24 5ZM22 6L22 7L23 7L23 6ZM26 6L26 7L27 7L27 6ZM32 6L32 7L31 7L31 8L32 8L32 7L33 7L33 6ZM6 9L6 10L7 10L7 9ZM1 10L1 12L2 12L2 13L1 13L1 14L2 14L2 13L3 13L3 16L4 16L4 17L3 17L3 18L2 18L2 19L3 19L3 20L2 20L2 22L3 22L3 20L4 20L4 19L6 19L6 20L7 20L7 19L8 19L8 17L9 17L9 15L8 15L8 14L7 14L7 13L5 13L5 14L4 14L4 13L3 13L3 12L2 12L2 11L3 11L3 10ZM26 10L26 11L24 11L24 14L25 14L25 13L26 13L26 11L27 11L27 10ZM19 11L19 13L18 13L18 14L17 14L17 15L18 15L18 16L19 16L19 17L17 17L17 16L16 16L16 17L17 17L17 18L16 18L16 19L17 19L17 18L18 18L18 19L19 19L19 18L20 18L20 16L19 16L19 13L20 13L20 12L21 12L21 13L22 13L22 14L23 14L23 13L22 13L22 12L21 12L21 11ZM44 11L44 13L43 13L43 14L45 14L45 11ZM28 12L28 15L27 15L27 16L28 16L28 19L31 19L31 20L27 20L27 21L28 21L28 22L27 22L27 23L28 23L28 24L27 24L27 26L28 26L28 27L27 27L27 29L28 29L28 31L27 31L27 32L29 32L29 33L28 33L28 35L29 35L29 37L28 37L28 36L27 36L27 37L28 37L28 39L29 39L29 38L30 38L30 35L31 35L31 34L29 34L29 33L30 33L30 32L29 32L29 31L30 31L30 29L31 29L31 31L32 31L32 32L31 32L31 33L33 33L33 34L32 34L32 35L33 35L33 34L34 34L34 31L33 31L33 28L32 28L32 27L33 27L33 24L32 24L32 27L31 27L31 26L30 26L30 22L31 22L31 20L33 20L33 21L34 21L34 20L33 20L33 17L32 17L32 19L31 19L31 18L30 18L30 17L29 17L29 16L30 16L30 15L29 15L29 12ZM34 13L34 14L35 14L35 17L34 17L34 19L36 19L36 18L35 18L35 17L37 17L37 19L39 19L39 17L38 17L38 15L39 15L39 14L38 14L38 15L37 15L37 16L36 16L36 14L35 14L35 13ZM5 14L5 15L7 15L7 14ZM28 15L28 16L29 16L29 15ZM44 15L44 18L45 18L45 15ZM6 16L6 17L8 17L8 16ZM4 17L4 18L3 18L3 19L4 19L4 18L5 18L5 17ZM21 17L21 19L22 19L22 17ZM6 18L6 19L7 19L7 18ZM10 18L10 19L11 19L11 18ZM44 20L44 21L43 21L43 22L45 22L45 20ZM5 21L5 24L8 24L8 21ZM21 21L21 24L24 24L24 21ZM29 21L29 22L30 22L30 21ZM37 21L37 24L40 24L40 21ZM6 22L6 23L7 23L7 22ZM15 22L15 23L14 23L14 24L15 24L15 23L16 23L16 22ZM22 22L22 23L23 23L23 22ZM38 22L38 23L39 23L39 22ZM19 23L19 26L20 26L20 23ZM44 23L44 25L45 25L45 23ZM12 26L12 27L13 27L13 26ZM29 26L29 27L28 27L28 28L29 28L29 27L30 27L30 28L31 28L31 29L32 29L32 28L31 28L31 27L30 27L30 26ZM14 31L14 32L15 32L15 31ZM40 32L40 33L41 33L41 35L42 35L42 32ZM26 33L26 35L27 35L27 33ZM12 34L12 35L14 35L14 34ZM20 34L20 35L21 35L21 34ZM24 34L24 35L25 35L25 34ZM44 34L44 36L43 36L43 37L44 37L44 36L45 36L45 34ZM11 36L11 37L13 37L13 36ZM21 37L21 40L24 40L24 37ZM37 37L37 40L40 40L40 37ZM22 38L22 39L23 39L23 38ZM38 38L38 39L39 39L39 38ZM8 39L8 40L9 40L9 39ZM19 39L19 40L20 40L20 39ZM41 40L41 41L42 41L42 43L41 43L41 42L40 42L40 41L38 41L38 43L39 43L39 42L40 42L40 43L41 43L41 44L42 44L42 43L43 43L43 41L42 41L42 40ZM19 41L19 42L20 42L20 41ZM21 41L21 42L22 42L22 41ZM9 42L9 43L10 43L10 42ZM12 42L12 43L13 43L13 45L16 45L16 44L15 44L15 42L14 42L14 43L13 43L13 42ZM20 43L20 44L21 44L21 43ZM0 0L0 7L7 7L7 0ZM1 1L1 6L6 6L6 1ZM2 2L2 5L5 5L5 2ZM38 0L38 7L45 7L45 0ZM39 1L39 6L44 6L44 1ZM40 2L40 5L43 5L43 2ZM0 38L0 45L7 45L7 38ZM1 39L1 44L6 44L6 39ZM2 40L2 43L5 43L5 40Z" fill="#000000"/></g></g></svg>
